<?xml version="1.0" standalone="no"?>
<!DOCTYPE svg PUBLIC "-//W3C//DTD SVG 20010904//EN"
 "http://www.w3.org/TR/2001/REC-SVG-20010904/DTD/svg10.dtd">
<svg version="1.0" xmlns="http://www.w3.org/2000/svg"
 width="512.000000pt" height="512.000000pt" viewBox="0 0 512.000000 512.000000"
 preserveAspectRatio="xMidYMid meet">
<metadata>
Created by potrace 1.11, written by Peter Selinger 2001-2013
</metadata>
<g transform="translate(0.000000,512.000000) scale(0.100000,-0.100000)"
fill="#000000" stroke="none">
<path d="M2210 4455 c0 -6 -371 -9 -995 -7 l-995 2 0 -2124 c0 -1690 3 -2125
13 -2129 6 -2 20 0 30 5 12 6 23 6 30 -1 8 -6 18 -6 27 -1 9 5 19 5 27 -1 8
-7 19 -7 33 1 14 8 25 8 33 1 8 -6 18 -6 27 -1 9 5 19 5 27 -2 9 -7 13 -7 13
1 0 8 5 9 19 1 14 -7 22 -7 26 0 5 8 11 8 20 0 9 -8 15 -8 20 0 3 6 13 7 23 2
20 -9 64 -8 81 2 7 4 17 3 24 -3 8 -6 18 -6 27 -1 9 5 19 5 27 -1 8 -7 18 -7
32 1 15 7 21 7 21 0 0 -7 6 -7 21 0 14 8 24 8 32 1 8 -6 18 -6 27 -1 9 5 19 5
27 -1 8 -7 18 -7 32 1 15 7 27 8 40 0 14 -7 22 -7 26 0 5 8 11 8 20 0 9 -8 15
-8 20 0 4 6 12 7 23 1 9 -5 26 -5 39 0 13 5 25 4 28 -1 4 -7 13 -7 24 0 12 6
22 5 29 -2 6 -6 16 -7 24 -2 19 12 37 14 44 3 3 -5 12 -5 23 1 12 6 22 5 28
-1 8 -8 17 -7 33 1 14 8 25 8 33 1 8 -6 18 -6 27 -1 9 5 19 5 27 -2 9 -7 13
-7 13 1 0 8 5 9 19 1 14 -7 22 -7 26 0 5 8 11 8 20 0 9 -8 15 -8 20 0 3 6 13
7 23 2 20 -9 64 -8 81 2 7 4 17 3 24 -3 8 -6 18 -6 27 -1 9 5 19 5 27 -1 8 -7
18 -7 32 1 15 7 21 7 21 0 0 -7 6 -7 21 0 14 8 24 8 32 1 8 -6 18 -6 27 -1 9
5 19 5 27 -1 8 -7 18 -7 32 1 15 7 27 8 40 0 14 -7 22 -7 26 0 5 8 11 8 20 0
9 -8 15 -8 20 0 4 6 12 7 23 1 9 -5 26 -5 39 0 13 5 25 4 28 -1 4 -7 13 -7 24
0 12 6 22 5 29 -2 6 -6 16 -7 24 -2 19 12 37 14 44 3 3 -5 12 -5 23 1 12 6 22
5 28 -1 8 -8 17 -7 33 1 14 8 25 8 33 1 8 -6 18 -6 27 -1 9 5 19 5 27 -2 9 -7
13 -7 13 1 0 8 5 9 19 1 14 -7 22 -7 26 0 5 8 11 8 20 0 9 -8 15 -8 20 0 3 6
13 7 23 2 20 -9 64 -8 81 2 7 4 17 3 24 -3 8 -6 18 -6 27 -1 9 5 19 5 27 -1 8
-7 18 -7 32 1 15 7 21 7 21 0 0 -7 6 -7 21 0 14 8 24 8 32 1 8 -6 18 -6 27 -1
9 5 19 5 27 -1 8 -7 18 -7 32 1 15 7 27 8 40 0 14 -7 22 -7 26 0 5 8 11 8 20
0 9 -8 15 -8 20 0 4 6 12 7 23 1 9 -5 26 -5 39 0 13 5 25 4 28 -1 4 -7 13 -7
24 0 12 6 22 5 29 -2 6 -6 16 -7 24 -2 19 12 37 14 44 3 3 -5 12 -5 23 1 12 6
22 5 28 -1 8 -8 17 -7 33 1 14 8 25 8 33 1 8 -6 18 -6 27 -1 9 5 19 5 27 -2 9
-7 13 -7 13 1 0 8 5 9 19 1 14 -7 22 -7 26 0 5 8 11 8 20 0 9 -8 15 -8 20 0 3
6 13 7 23 2 20 -9 64 -8 81 2 7 4 17 3 24 -3 8 -6 18 -6 27 -1 9 5 19 5 27 -1
8 -7 18 -7 32 1 15 7 21 7 21 0 0 -7 6 -7 21 0 14 8 24 8 32 1 8 -6 18 -6 27
-1 9 5 19 5 27 -1 8 -7 18 -7 32 1 15 7 27 8 40 0 14 -7 22 -7 26 0 5 8 11 8
20 0 9 -8 15 -8 20 0 4 6 12 7 23 1 9 -5 26 -5 39 0 13 5 25 4 28 -1 4 -7 13
-7 24 0 12 6 22 5 29 -2 6 -6 16 -7 24 -2 19 12 37 14 44 3 3 -5 12 -5 23 1
12 6 22 5 28 -1 8 -8 17 -7 33 1 14 8 25 8 33 1 8 -6 18 -6 27 -1 9 5 19 5 27
-2 9 -7 13 -7 13 1 0 8 5 9 19 1 14 -7 22 -7 26 0 5 8 11 8 20 0 9 -8 15 -8
20 0 4 6 12 7 23 1 9 -5 26 -5 37 -1 12 5 28 4 35 0 8 -5 17 -7 20 -5 16 10
60 13 60 4 0 -6 4 -8 10 -4 5 3 7 11 4 18 -4 12 9 16 59 20 21 2 21 6 0 24
-10 8 -13 12 -8 10 14 -7 47 51 34 58 -5 4 -9 0 -9 -7 0 -10 -3 -9 -9 2 -11
17 -5 30 12 26 7 -1 9 -1 4 1 -4 3 -4 10 -1 15 4 7 2 8 -4 4 -7 -4 -12 -4 -13
1 0 4 -2 23 -3 41 -1 18 -8 38 -15 45 -11 10 -11 8 -2 -10 6 -12 7 -24 3 -27
-9 -5 -11 4 -14 59 -2 26 -7 35 -20 35 -10 0 -18 4 -18 9 0 6 10 8 21 6 12 -3
18 -1 15 3 -4 4 -12 8 -17 8 -5 1 -11 2 -14 3 -2 0 0 13 5 27 7 16 7 23 0 19
-6 -3 -10 1 -10 10 0 10 -5 13 -12 9 -10 -6 -10 -4 0 8 10 13 10 18 1 24 -8 5
-9 3 -4 -6 5 -9 4 -11 -3 -6 -9 5 -9 13 -2 27 7 13 7 19 0 19 -5 0 -9 6 -7 13
1 6 -5 11 -13 9 -11 -2 -10 1 3 12 18 14 18 14 -2 21 -20 6 -28 43 -22 93 1 6
-6 12 -15 12 -12 0 -15 6 -12 25 3 14 1 28 -4 31 -5 3 -6 15 -3 27 2 12 2 16
-1 10 -9 -20 -20 -15 -21 8 -1 15 3 19 13 15 8 -3 13 -2 10 2 -8 14 10 33 32
35 12 1 22 7 22 13 0 6 9 14 21 17 12 3 18 10 15 16 -4 5 -1 13 5 17 8 4 9 3
5 -4 -4 -7 -2 -12 3 -12 6 0 11 5 11 11 0 5 4 7 10 4 5 -3 7 0 4 8 -3 8 2 14
11 15 8 1 22 3 30 4 8 1 12 5 9 10 -3 5 -11 6 -17 2 -7 -3 -3 2 8 10 11 9 25
14 33 11 7 -2 10 0 7 5 -3 6 1 13 10 16 9 4 14 13 11 20 -3 7 -1 16 4 19 4 3
11 -1 13 -7 4 -9 6 -7 6 3 1 9 11 24 24 33 12 9 15 14 7 10 -13 -7 -13 -5 -1
9 7 9 19 17 26 17 7 0 11 11 9 27 -2 27 -2 27 12 9 14 -19 14 -19 15 5 1 13 1
28 0 33 -1 5 6 6 15 2 14 -5 15 -4 5 8 -9 11 -9 16 0 22 8 5 10 3 5 -7 -4 -8
0 -5 8 5 9 11 16 24 16 29 0 4 4 6 9 3 4 -3 8 2 8 12 0 40 4 53 12 47 5 -3 13
0 17 6 4 7 3 9 -4 5 -6 -3 -13 -2 -17 4 -3 5 0 10 7 10 8 0 15 13 16 32 2 18
10 40 19 50 9 10 13 18 8 18 -4 0 -1 8 6 17 8 10 9 14 2 10 -6 -4 -14 -3 -17
2 -4 5 -2 12 4 16 5 3 10 13 10 21 0 10 -5 12 -12 8 -9 -6 -9 -3 1 9 8 10 12
31 9 52 -2 19 0 35 5 35 4 0 5 6 0 13 -4 6 -6 23 -4 36 1 13 -1 21 -6 18 -6
-4 -10 0 -10 8 0 8 4 12 9 9 4 -3 8 -1 8 5 0 5 -5 11 -12 13 -11 4 -16 32 -21
106 0 12 -7 22 -14 22 -7 0 -13 5 -13 11 0 5 4 8 9 5 5 -4 4 5 -2 19 -7 14
-15 25 -19 25 -5 0 -8 5 -8 11 0 5 6 7 13 4 6 -4 1 3 -12 15 -21 18 -23 23
-10 32 11 8 10 9 -4 4 -13 -4 -20 0 -24 14 -3 11 -10 17 -15 14 -6 -4 -5 3 1
14 12 23 5 31 -22 27 -14 -3 -16 0 -7 10 8 9 8 15 0 20 -6 3 -7 11 -4 17 4 7
2 8 -5 4 -6 -4 -8 -12 -5 -18 5 -7 2 -8 -5 -3 -7 4 -11 18 -8 31 3 18 0 24
-14 24 -10 0 -20 9 -24 20 -3 11 -9 19 -13 19 -19 -3 -23 2 -13 15 10 12 8 14
-12 12 -20 -2 -23 1 -21 21 2 21 0 22 -14 11 -9 -7 -13 -8 -9 -2 3 6 -1 20 -9
30 -9 10 -13 14 -10 8 3 -6 -1 -11 -9 -11 -7 0 -12 8 -10 19 3 12 -2 18 -16
18 -10 0 -18 5 -17 11 2 6 -10 19 -27 28 -16 10 -32 26 -35 37 -3 10 -12 19
-20 19 -8 0 -14 6 -12 14 3 12 1 12 -14 0 -10 -8 -15 -9 -11 -2 10 15 -33 55
-51 48 -9 -3 -12 0 -9 9 6 15 -19 30 -34 21 -4 -3 -14 3 -21 15 -7 11 -22 20
-33 20 -16 0 -17 2 -5 9 8 6 19 7 25 4 5 -4 6 -2 2 3 -5 5 -14 9 -20 10 -7 0
-20 2 -30 2 -11 1 -15 7 -11 14 5 8 2 9 -10 5 -10 -4 -15 -3 -11 3 5 9 -7 14
-27 11 -4 0 -10 8 -13 19 -4 12 -12 17 -22 13 -12 -5 -15 -2 -10 10 5 13 1 17
-19 17 -20 0 -25 4 -20 16 6 15 4 15 -11 3 -9 -8 -14 -9 -10 -2 11 18 -12 26
-30 11 -10 -7 -14 -8 -10 -1 4 6 4 13 0 16 -5 2 -2 2 6 0 11 -3 11 0 2 11 -7
8 -23 13 -37 11 -23 -2 -24 -1 -8 16 15 17 15 18 -4 16 -11 0 -18 -5 -15 -10
3 -5 -4 -3 -16 4 -14 10 -17 15 -8 21 8 5 4 8 -10 8 -13 0 -23 5 -23 11 0 5
-5 7 -12 3 -7 -5 -9 -2 -6 8 4 8 0 15 -8 16 -8 1 -21 3 -29 4 -8 1 -15 8 -15
16 0 9 -6 12 -16 8 -11 -4 -15 -2 -11 8 3 8 -1 17 -9 20 -9 3 -12 1 -9 -4 3
-6 1 -10 -4 -10 -6 0 -11 7 -11 15 0 9 -6 12 -17 8 -9 -4 -14 -2 -11 3 8 13
-15 31 -36 28 -12 -2 -16 2 -12 12 4 9 -1 14 -15 14 -13 0 -18 4 -13 13 6 9 5
9 -8 0 -18 -15 -29 -7 -21 15 5 11 2 14 -10 9 -11 -4 -17 -1 -17 8 0 8 -9 15
-21 15 -12 0 -17 4 -14 11 4 6 0 9 -11 7 -12 -2 -18 2 -16 11 2 9 -4 12 -18 8
-13 -3 -20 0 -20 9 0 8 -13 17 -30 21 -25 4 -28 8 -18 20 6 8 7 13 2 12 -25
-4 -41 4 -59 30 -11 17 -21 28 -24 26 -2 -3 2 -11 9 -20 7 -8 8 -15 3 -15 -5
0 -15 12 -21 26 -7 15 -17 22 -24 18 -6 -4 -8 -3 -5 3 10 15 -15 58 -33 58 -8
0 -17 11 -21 25 -4 14 -7 19 -8 11 -1 -19 -12 -8 -15 16 -2 10 -10 17 -19 17
-10 -1 -14 6 -12 22 1 13 -2 24 -7 24 -5 0 -6 5 -2 12 4 7 3 8 -5 4 -6 -4 -8
-13 -4 -19 4 -7 -1 -6 -10 2 -12 10 -14 17 -7 26 8 9 6 14 -5 19 -11 4 -14 2
-9 -6 4 -7 3 -8 -4 -4 -7 4 -12 14 -12 22 0 13 -13 19 -35 14 -5 -1 -5 4 2 11
14 14 6 39 -12 39 -8 0 -16 9 -20 19 -3 10 -15 21 -25 24 -14 4 -18 10 -13 23
3 9 2 15 -3 12 -5 -3 -14 0 -21 7 -10 11 -10 15 0 19 7 4 2 4 -10 2 -26 -5
-29 3 -10 23 10 11 10 13 0 7 -8 -5 -13 -1 -14 11 0 10 -3 13 -6 6 -8 -22 -21
-14 -19 12 2 13 -1 22 -5 19 -5 -3 -9 0 -9 6 0 6 -4 9 -9 6 -8 -5 -30 15 -46
43 -6 10 -4 12 5 6 9 -5 11 -4 6 3 -4 7 -14 12 -22 12 -8 0 -14 9 -14 21 0 11
-4 18 -9 14 -12 -7 -33 29 -23 41 4 5 -1 2 -10 -5 -15 -11 -18 -11 -18 2 0 8
6 18 13 20 6 3 0 6 -15 6 -15 1 -30 6 -34 13 -5 7 -3 8 6 3 9 -5 11 -4 6 3 -4
7 -15 12 -24 13 -11 0 -12 3 -4 6 18 7 15 21 -5 19 -12 -1 -18 6 -18 19 0 15
-6 20 -25 19 -23 -2 -23 -1 -5 13 20 14 20 15 0 11 -12 -2 -20 3 -20 12 -1 22
-15 41 -26 35 -5 -4 -9 -1 -9 5 0 6 -4 8 -10 5 -5 -3 -10 1 -10 9 0 9 -5 16
-11 16 -5 0 -7 5 -3 12 5 8 2 9 -9 5 -12 -5 -17 -1 -17 13 0 11 -6 20 -14 20
-8 0 -18 5 -22 12 -5 7 -2 8 7 3 8 -5 11 -5 7 0 -4 4 -18 13 -30 20 -13 6 -22
17 -20 25 2 8 -3 10 -13 6 -9 -3 -13 -2 -10 3 3 6 -3 14 -12 20 -16 9 -16 12
-3 21 12 8 9 9 -12 6 -20 -3 -29 0 -33 14 -3 11 -15 22 -25 25 -13 4 -17 12
-13 23 6 15 5 16 -12 2 -17 -14 -18 -13 -13 7 5 20 4 21 -13 13 -14 -8 -17 -7
-13 4 3 8 0 17 -7 22 -8 4 -10 3 -5 -4 5 -8 2 -10 -8 -6 -9 3 -14 11 -13 17 1
6 -8 13 -19 15 -12 2 -24 12 -27 23 -4 17 -9 19 -23 11 -11 -6 -27 -7 -41 -1
-13 5 -23 5 -23 1 0 -4 -10 4 -21 18 -11 14 -18 19 -14 13 8 -16 -7 -17 -23
-1 -7 7 -12 8 -12 3z m560 -415 c0 -5 -5 -10 -11 -10 -5 0 -7 5 -4 10 3 6 8
10 11 10 2 0 4 -4 4 -10z m1681 -1517 c13 -16 12 -17 -3 -4 -17 13 -22 21 -14
21 2 0 10 -8 17 -17z m502 -968 c4 -8 1 -17 -6 -21 -7 -4 -9 -4 -5 1 4 4 3 14
-3 22 -7 8 -8 13 -1 13 5 0 12 -7 15 -15z m-63 -175 c0 -5 -5 -10 -11 -10 -5
0 -7 5 -4 10 3 6 8 10 11 10 2 0 4 -4 4 -10z m-180 -244 c0 -3 -4 -8 -10 -11
-5 -3 -10 -1 -10 4 0 6 5 11 10 11 6 0 10 -2 10 -4z m-197 -331 c-3 -9 -8 -14
-10 -11 -3 3 -2 9 2 15 9 16 15 13 8 -4z"/>
<path d="M2297 4439 c7 -7 15 -10 18 -7 3 3 -2 9 -12 12 -14 6 -15 5 -6 -5z"/>
<path d="M3015 3750 c3 -5 8 -10 11 -10 2 0 4 5 4 10 0 6 -5 10 -11 10 -5 0
-7 -4 -4 -10z"/>
<path d="M4360 2601 c0 -6 4 -13 10 -16 6 -3 7 1 4 9 -7 18 -14 21 -14 7z"/>
<path d="M4959 1868 c-6 -21 -5 -38 1 -38 5 0 8 9 7 20 -1 17 -5 26 -8 18z"/>
<path d="M4675 280 c-3 -5 -1 -10 4 -10 6 0 11 5 11 10 0 6 -2 10 -4 10 -3 0
-8 -4 -11 -10z"/>
</g>
</svg>
